<svg viewBox="0 0 100 100" xmlns="http://www.w3.org/2000/svg"><symbol viewBox="0 0 100 100" id="arrow"><title>arrow</title> <polygon points="89,47.4 67.2,25.7 71,22 99,50 71,78 67.2,74.3 89,52.6 1,52.6 1,47.4 "/> </symbol><symbol viewBox="0 0 100 100" id="funnel"><title>funnel</title> <path d="M99,18.1V23H1v-4.9H99z M79.4,47.5v4.9H20.6v-4.9H79.4z M59.8,76.9v4.9H40.2v-4.9H59.8z"/> </symbol><symbol viewBox="0 0 100 100" id="next"><title>next</title> <path d="M65.9,50L23.3,7.4L28.7,2l48,48l-48,48l-5.4-5.4L65.9,50z"/> </symbol><symbol viewBox="0 0 100 100" id="prev"><title>prev</title> <path d="M76.7,92.6L71.3,98l-48-48l48-48l5.4,5.4L34.1,50L76.7,92.6z"/> </symbol></svg>