<svg viewBox="0 0 100 100" xmlns="http://www.w3.org/2000/svg"><symbol viewBox="0 0 100 100" id="arrow-short--left"><title>arrow-short--left</title> <polygon points="11.1,47.4 99,47.4 99,52.6 11.1,52.6 43.5,85 39.8,88.8 1,50 39.8,11.2 43.5,15 "/> </symbol><symbol viewBox="0 0 100 100" id="arrow-short"><title>arrow-short</title> <polygon points="88.9,52.6 1,52.6 1,47.4 88.9,47.4 56.5,15 60.2,11.2 99,50 60.2,88.8 56.5,85 "/> </symbol><symbol viewBox="0 0 100 100" id="arrow"><title>arrow</title> <polygon points="89,47.4 67.2,25.7 71,22 99,50 71,78 67.2,74.3 89,52.6 1,52.6 1,47.4 "/> </symbol><symbol viewBox="0 0 100 100" id="funnel"><title>funnel</title> <path d="M99,18.1V23H1v-4.9H99z M79.4,47.5v4.9H20.6v-4.9H79.4z M59.8,76.9v4.9H40.2v-4.9H59.8z"/> </symbol><symbol viewBox="0 0 100 100" id="next"><title>next</title> <path d="M65.9,50L23.3,7.4L28.7,2l48,48l-48,48l-5.4-5.4L65.9,50z"/> </symbol><symbol viewBox="0 0 100 100" id="prev"><title>prev</title> <path d="M76.7,92.6L71.3,98l-48-48l48-48l5.4,5.4L34.1,50L76.7,92.6z"/> </symbol><symbol viewBox="0 0 100 100" id="quotes"><title>quotes</title> <g> <path d="M61.5,44.6V8.3h33.5V37c0,15.5-1.9,26.8-5.6,33.7C84.7,80,77,87,66.5,91.7
		l-7.6-12.2C65.3,76.8,70,72.9,73,67.6s4.7-12.9,5-23H61.5z M7.8,44.6V8.3h33.5V37c0,15.5-1.9,26.8-5.6,33.7
		c-4.8,9.3-12.5,16.3-23,21L4.9,79.5C11.4,76.9,16,72.9,19,67.6s4.7-12.9,5-23H7.8z"/> </g> </symbol><symbol viewBox="0 0 98 88" id="triangle"><title>triangle</title> <g> <polygon points="98,87.3 49,87.3 0,87.3 24.5,44 49,0.7 73.5,44 	"/> </g> </symbol></svg>